<svg version="1.1" id="Layer_1" xmlns="http://www.w3.org/2000/svg" xmlns:xlink="http://www.w3.org/1999/xlink" x="0px" y="0px"
	 width="100%" viewBox="0 0 480 224" enable-background="new 0 0 480 224" xml:space="preserve">
<path fill="#000000" opacity="1.000000" stroke="none" 
	d="
M117.086876,163.857483 
	C119.022125,166.836624 120.333206,164.001892 120.995094,163.189362 
	C127.918335,154.690445 135.464386,146.593597 140.295609,136.610367 
	C142.346069,132.373291 144.623016,128.365082 147.702454,124.814285 
	C149.484528,122.759407 151.591354,121.088341 154.185287,120.293427 
	C158.657303,118.922966 162.966858,119.385490 165.959976,123.269547 
	C168.725800,126.858650 167.343277,130.593811 164.991623,133.887650 
	C161.552017,138.705368 157.207184,142.535629 151.822510,145.100739 
	C148.504639,146.681290 144.753784,158.157913 146.538498,161.356262 
	C147.536346,163.144485 149.083755,162.891815 150.383743,162.010422 
	C152.718597,160.427444 155.218185,158.895477 157.067596,156.823349 
	C163.386307,149.743668 169.477676,142.447830 174.232010,134.179489 
	C176.337448,130.517883 178.700806,127.240326 182.398407,124.947670 
	C188.235352,121.328537 191.674820,122.060806 195.056625,128.005463 
	C195.543900,128.862030 195.972290,129.752106 196.394943,130.563354 
	C196.907761,130.536255 197.310913,130.640915 197.516846,130.485031 
	C200.235382,128.427261 203.049072,126.154160 206.442123,128.886383 
	C210.071869,131.809204 208.157791,135.198517 206.653763,138.378860 
	C203.561462,144.917755 202.161026,151.745697 202.430161,159.150604 
	C210.388092,156.349716 223.429611,132.462708 227.407745,113.774254 
	C220.267563,112.187401 212.633270,115.330589 205.258591,112.005684 
	C207.762238,108.827827 211.090225,109.242134 213.998047,108.892082 
	C218.121094,108.395744 222.291046,108.161461 226.445450,108.094826 
	C229.568253,108.044731 231.468750,106.674271 232.415863,103.816147 
	C234.598907,97.228287 239.241928,92.036499 242.497833,86.054237 
	C244.731323,81.950531 248.432037,80.261734 253.032196,81.232880 
	C256.548248,81.975159 257.993225,83.923599 255.575577,87.297966 
	C251.792526,92.577988 248.001129,97.850716 245.263580,103.784462 
	C244.790085,104.810806 243.875717,105.706741 244.443237,107.322060 
	C248.661270,108.286949 253.141388,107.159683 257.771790,107.722847 
	C257.631927,111.289566 255.047806,112.299011 252.742142,111.890533 
	C242.078430,110.001358 238.559814,116.529671 235.473770,124.944679 
	C230.371918,138.856384 224.870773,152.604691 221.921219,167.196304 
	C221.662140,168.477997 221.046494,169.736008 222.415924,171.151993 
	C225.273727,169.687637 227.165375,167.163879 229.130066,164.848633 
	C233.225418,160.022552 237.077332,154.990829 241.085510,150.089600 
	C245.006256,145.295288 248.703796,140.415833 249.919006,134.108917 
	C250.234772,132.470078 251.150375,131.006256 252.551666,129.967834 
	C255.485931,127.793465 258.321655,128.716202 260.835083,130.606049 
	C263.417999,132.548096 261.182892,134.379883 260.353668,136.255737 
	C258.673279,140.057022 257.026306,143.878662 255.556824,147.764252 
	C255.118408,148.923416 254.840515,150.497177 256.329712,151.343307 
	C257.535095,152.028152 258.545502,151.220245 259.530487,150.583832 
	C265.618347,146.650360 268.678497,140.175140 272.824585,134.624435 
	C273.451935,133.784531 273.609344,132.377396 273.534760,131.262695 
	C272.749969,119.535347 273.717682,107.713776 271.351379,96.062233 
	C270.067841,89.742180 271.615814,87.159775 277.244659,84.430763 
	C281.585358,82.326263 284.071472,83.653244 284.274414,88.396317 
	C284.998199,105.313126 287.820160,122.189522 285.320557,139.174393 
	C285.226013,139.816849 285.308502,140.485367 286.120270,141.574783 
	C287.980072,138.565155 289.851685,135.562714 291.697723,132.544678 
	C301.907776,115.852730 313.263672,100.090881 328.226379,87.223122 
	C330.594330,85.186722 333.014618,83.521706 335.317596,86.895996 
	C337.654907,90.320503 335.075989,92.118774 332.366821,93.397141 
	C327.539062,95.675232 324.990204,100.434578 320.775818,103.130081 
	C321.450653,105.131248 322.938202,104.271416 323.882996,104.756760 
	C326.304016,106.000450 328.830963,108.556641 327.355682,110.500153 
	C324.268402,114.567245 323.863342,120.198479 319.455780,123.354889 
	C317.836761,124.514320 316.199310,126.328575 314.275238,124.326561 
	C312.742371,122.731606 313.063843,120.841797 314.355652,118.873505 
	C317.801300,113.623512 318.017242,112.400108 317.239624,107.164024 
	C308.557037,117.371429 300.523407,127.493340 294.242157,138.831375 
	C289.009766,148.276215 283.004456,157.351608 279.645630,167.774414 
	C278.697479,170.716537 276.163727,172.060318 273.080902,172.402390 
	C267.664001,173.003448 265.912720,170.900879 268.050354,165.844727 
	C270.883087,159.144516 270.601776,151.836548 271.988129,144.581573 
	C269.813568,147.497208 267.679321,150.443954 265.456635,153.322449 
	C259.643768,160.850372 255.709412,160.979111 249.446976,153.898987 
	C248.787582,153.153519 248.146484,152.391876 247.423706,151.552795 
	C244.635727,152.606720 243.783234,155.154007 242.305908,157.015549 
	C237.233047,163.407776 232.414963,170.004150 227.274078,176.339584 
	C224.997955,179.144608 222.436600,182.247696 218.034439,180.474060 
	C213.446564,178.625626 211.439850,174.968918 211.745834,170.167419 
	C211.987991,166.367447 212.611069,162.591751 213.124664,158.307602 
	C210.668167,161.017319 208.604248,163.653336 206.177078,165.896286 
	C201.185532,170.508957 196.393784,169.356110 193.423233,163.219940 
	C190.745056,157.687683 192.211136,152.180283 193.528915,145.366379 
	C190.007355,150.814865 187.152603,155.197845 183.650803,159.110153 
	C180.913651,162.168182 177.770187,164.484360 173.629837,163.000534 
	C169.640656,161.570877 169.052841,157.655106 168.642853,153.931168 
	C168.556641,153.148239 168.505768,152.361420 168.408447,151.223907 
	C164.279846,154.538773 161.979492,158.854904 158.715469,162.305893 
	C154.968765,166.267212 151.299072,171.117905 144.780060,168.573853 
	C138.448837,166.103119 135.343292,161.189758 135.864624,153.623535 
	C131.089294,160.475571 126.421188,166.525650 120.000549,170.901566 
	C117.268829,172.763321 114.462303,175.162460 110.948029,172.702225 
	C107.483330,170.276688 106.280945,166.671448 106.813896,162.600555 
	C107.449066,157.748947 109.925850,153.500793 111.636734,149.000168 
	C112.504013,146.718735 114.100327,144.681000 114.173882,142.106873 
	C105.373650,140.069916 102.068321,133.105011 107.033882,127.272240 
	C108.519142,125.527580 110.324875,124.538109 112.693199,124.628792 
	C116.460312,124.773033 117.453514,126.438393 115.710968,129.806335 
	C112.973877,135.096466 112.973885,135.096466 119.171860,135.857361 
	C125.964912,136.691284 127.110573,138.746643 124.522865,145.013519 
	C121.982788,151.165024 119.602287,157.382416 117.086876,163.857483 
M183.566025,150.035141 
	C185.541260,147.381897 187.310242,144.539139 189.536316,142.116364 
	C193.680252,137.606262 192.243668,133.266907 189.472946,127.679329 
	C182.701248,135.762207 180.202118,144.557556 178.562088,154.155441 
	C181.355682,153.791702 181.972443,151.869766 183.566025,150.035141 
M157.212006,134.588760 
	C159.701065,131.783951 162.114487,128.961288 159.534363,124.354904 
	C155.263214,128.326660 153.316528,132.936737 151.765228,138.246094 
	C154.324387,137.811539 155.404099,136.282120 157.212006,134.588760 
z"/>
<path fill="#000000" opacity="1.000000" stroke="none" 
	d="
M371.239868,113.541542 
	C363.973694,112.793579 356.814240,114.869911 349.993713,112.387108 
	C349.865356,110.308884 351.140411,110.012932 352.220428,109.844131 
	C355.174469,109.382416 358.186035,108.617485 361.118408,108.814011 
	C370.025513,109.410942 376.854584,107.599991 379.742706,97.649223 
	C380.993042,93.341377 384.432343,89.667694 386.884125,85.710167 
	C388.569611,82.989586 391.011261,81.362823 394.179840,81.007965 
	C396.570740,80.740204 398.998566,81.053703 400.519470,83.109512 
	C402.108124,85.256920 400.131104,86.988609 399.054321,88.436928 
	C394.879822,94.051750 391.161224,99.893669 388.334595,106.580734 
	C392.757172,109.002960 397.596497,106.570877 402.175110,108.157440 
	C401.369812,111.510292 398.983521,112.349251 396.488068,111.968498 
	C387.200226,110.551399 383.150482,115.172302 380.262939,123.513123 
	C375.638000,136.872391 370.105896,149.912704 366.880432,163.741882 
	C366.347046,166.028778 365.879364,168.272415 366.684448,171.011459 
	C369.786774,169.372086 371.808228,166.779922 373.796844,164.323532 
	C382.279114,153.846069 391.260834,143.727783 397.877167,131.862869 
	C398.039062,131.572510 398.235962,131.301468 398.419800,131.023560 
	C405.320099,120.588646 411.727142,120.302254 418.901825,130.100922 
	C419.226562,130.094162 419.621246,130.215927 419.865479,130.075699 
	C422.920349,128.321838 425.925598,126.118103 429.311401,129.453918 
	C432.561035,132.655594 430.213074,135.612778 428.838745,138.540329 
	C425.774292,145.068237 424.744110,151.938278 424.423492,160.408554 
	C433.678406,153.543839 437.020752,143.492050 443.773438,136.178665 
	C446.068054,138.645142 444.969238,140.316254 444.154114,141.866806 
	C440.435638,148.939911 436.926758,156.133240 431.765076,162.351624 
	C428.724762,166.014374 425.804840,169.941071 420.249451,168.182755 
	C416.386230,166.960022 413.471985,160.535629 414.098938,154.955551 
	C414.447937,151.848923 414.704224,148.669067 416.024200,145.659271 
	C412.609528,150.063278 409.916290,154.914139 406.012939,158.892426 
	C403.207520,161.751694 400.345001,164.375671 396.053436,163.073563 
	C392.273102,161.926544 391.875000,158.249741 391.024445,155.049042 
	C390.821106,154.284042 390.669739,153.505219 390.372223,152.193939 
	C384.913849,159.293289 379.786896,166.001617 374.608032,172.669647 
	C373.281891,174.377106 371.878571,176.043625 370.355804,177.574875 
	C368.237427,179.705032 366.095551,181.981903 362.563232,180.660629 
	C358.973999,179.318054 356.797852,176.735489 356.137634,173.009705 
	C355.147461,167.421677 357.278717,162.161942 358.117523,156.774109 
	C358.597961,153.688156 359.491180,150.666473 360.360687,146.916702 
	C356.268494,149.328720 352.772797,151.451706 349.213684,153.462555 
	C347.200958,154.599716 347.063599,156.424423 347.500580,158.228729 
	C348.315582,161.593857 347.778412,164.891342 347.225128,168.149109 
	C345.456757,178.561630 335.000122,184.329514 325.188629,180.435150 
	C318.556244,177.802658 316.601196,171.959579 320.389832,165.978256 
	C323.433960,161.172287 328.095520,158.124207 332.812958,155.350372 
	C336.063812,153.438873 336.776672,151.362793 335.478485,148.003922 
	C334.401703,145.217987 333.670197,142.293686 333.600464,139.211456 
	C329.771179,144.433090 326.099487,149.704544 322.134216,154.745026 
	C319.850067,157.648529 317.258392,160.335678 312.814972,158.264069 
	C308.682800,156.337570 304.326904,150.854309 304.870331,147.057266 
	C305.550995,142.301147 306.399933,137.521500 308.282196,133.047592 
	C309.675140,129.736816 312.080933,128.063553 315.833191,129.064133 
	C320.115601,130.206070 320.806671,131.897507 318.585480,135.856049 
	C314.483612,143.166321 313.308502,147.024490 314.025208,151.698517 
	C318.616333,150.901581 321.614563,147.852875 324.087616,144.483566 
	C326.342743,141.411133 327.959106,137.875931 331.308167,135.710144 
	C333.470001,134.312119 332.636261,132.073547 332.596985,130.214539 
	C332.505798,125.896629 334.562042,122.929886 337.960480,120.684296 
	C339.593323,119.605339 341.358398,119.273445 343.082733,120.535744 
	C344.702576,121.721542 344.872162,123.653984 344.178802,125.070869 
	C340.446075,132.698807 345.068634,139.581696 345.382385,146.849930 
	C358.518158,145.198044 369.380829,131.209961 371.239868,113.541542 
M411.246582,142.744202 
	C415.368591,136.782883 415.523346,133.510910 411.911438,128.686646 
	C406.533112,132.244659 400.647949,146.889114 401.914185,153.733963 
	C402.368378,153.538971 402.949463,153.474075 403.204468,153.151428 
	C405.774139,149.899963 408.290375,146.606277 411.246582,142.744202 
M325.127136,169.687103 
	C323.543030,172.826492 324.700989,174.041702 327.991150,173.795120 
	C333.709595,173.366516 337.495117,167.310532 335.862976,160.774246 
	C331.930695,163.054398 328.028351,165.176712 325.127136,169.687103 
z"/>
<path fill="#000000" opacity="1.000000" stroke="none" 
	d="
M77.400406,107.353767 
	C69.000580,122.619614 62.518738,138.263229 58.980141,154.997772 
	C57.960644,159.819138 56.452404,165.593124 61.525761,168.752151 
	C66.174286,171.646652 70.498871,167.814774 74.181137,165.193375 
	C81.616989,159.899841 86.813133,152.488968 91.824867,144.992920 
	C92.962357,143.291580 92.933914,143.272568 95.497208,141.551407 
	C96.889229,143.917755 96.483849,146.383835 95.919922,148.701385 
	C92.865746,161.252853 84.651382,169.985443 74.379311,177.031830 
	C71.001411,179.348969 67.209930,179.403885 63.471985,177.433945 
	C48.061741,169.312561 45.933247,162.128311 49.259777,145.851410 
	C52.327991,130.838470 57.434124,116.435608 66.729645,103.781677 
	C70.056992,99.252190 72.854958,94.277901 76.284454,89.779602 
	C77.994896,87.536110 79.844986,85.346489 81.916084,83.441429 
	C86.325279,79.385719 90.998123,75.867340 97.526001,79.001907 
	C102.792381,81.530724 106.637466,88.721306 106.185753,95.323059 
	C105.537132,104.802864 98.010719,112.017540 89.645241,110.876686 
	C89.985786,107.614250 91.830521,105.031769 93.590561,102.521133 
	C95.633545,99.606895 97.020828,96.426414 98.131935,93.113914 
	C98.807983,91.098457 99.734215,88.595490 97.532310,87.176964 
	C95.612114,85.939919 93.739975,87.627266 92.185127,88.822617 
	C87.086906,92.742027 83.345848,97.832626 80.007111,103.252457 
	C79.221046,104.528473 78.402115,105.784241 77.400406,107.353767 
z"/>
<path fill="#000000" opacity="1.000000" stroke="none" 
	d="
M269.330414,111.361671 
	C265.462708,114.301041 265.943726,119.565987 262.499084,122.342308 
	C260.784607,123.724144 259.151306,126.465240 256.675385,124.583046 
	C254.205688,122.705589 255.334473,120.285873 257.007416,118.067223 
	C258.719269,115.796997 259.779083,113.088760 259.843231,110.244392 
	C259.907532,107.393776 259.850952,104.648918 263.684296,104.727524 
	C267.650452,104.808861 269.790436,106.856308 269.330414,111.361671 
z"/>
</svg>